<svg width="24" xmlns="http://www.w3.org/2000/svg" viewBox="-14 -14 24 24" height="24" style="enable-background:new -14 -14 48 48">
<path style="fill:#fff;fill-rule:evenodd" d="m -2,-14 c -6.627417,0 -12,5.372583 -12,12 0,6.627417 5.372583,12 12,12 6.627417,0 12,-5.372583 12,-12 0,-6.627417 -5.372583,-12 -12,-12 z m 1,3 3,0 0,3 c -0.2595,0.0015 -1.479,0 -2,0 -0.064,0 -1,-0.0465 -1,1 0.008,0.427 0,2 0,2 l 3,0 0,3 -3,0 0,9 -3,0 0,-9 -3,0 0,-3 3,0 c 0,-0.995 0.0095,-2.0775 0,-3 0,-2 1,-3 3,-3 z"/>
</svg>
