<svg width="24" xmlns="http://www.w3.org/2000/svg" viewBox="0 0 24 24" height="24" style="enable-background:new 0 0 48 48">
<path style="fill:#fff;fill-rule:evenodd" d="M 12.34375 0 A 12.000024 12.000027 0 0 0 0 12 A 12.000024 12.000027 0 1 0 24 12 A 12.000024 12.000027 0 0 0 12.34375 0 z M 9.34375 3 C 9.715805 3 10.068909 3.0513166 10.4375 3.125 C 10.806091 3.1986834 11.181438 3.2912484 11.5625 3.40625 L 16 3.40625 L 16 4.59375 L 12.96875 4.59375 L 12.96875 4.65625 C 13.274985 5.0102058 13.50729 5.3848608 13.65625 5.8125 C 13.805215 6.2408279 13.875 6.6826379 13.875 7.09375 C 13.875 8.163881 13.436171 9.0715341 12.5625 9.8125 C 11.688829 10.552777 10.659122 10.90625 9.5 10.90625 L 8 10.90625 C 7.809469 10.972359 7.6134092 11.109092 7.40625 11.28125 C 7.1990909 11.453407 7.09375 11.672639 7.09375 11.96875 C 7.09375 12.273813 7.2010971 12.496488 7.375 12.65625 C 7.5489028 12.81739 7.7512704 12.942155 8 13 C 8.2397226 13.066109 8.5250436 13.109162 8.84375 13.125 C 9.1624564 13.142216 9.4730084 13.147979 9.8125 13.15625 C 10.176933 13.16382 10.678551 13.20868 11.3125 13.25 C 11.945756 13.29062 12.390892 13.3042 12.65625 13.3125 C 13.037312 13.329027 13.427281 13.429168 13.8125 13.59375 C 14.19772 13.758333 14.560451 13.962841 14.875 14.25 C 15.206178 14.563327 15.465719 14.917915 15.65625 15.3125 C 15.84609 15.707774 15.9375 16.196603 15.9375 16.78125 C 15.9375 17.365897 15.818851 17.923094 15.5625 18.4375 C 15.304764 18.951907 14.896709 19.402503 14.375 19.78125 C 13.820035 20.16826 13.176688 20.473336 12.40625 20.6875 C 11.635812 20.901664 10.665429 21 9.53125 21 C 7.6765173 21 6.2937058 20.727386 5.375 20.1875 C 4.4562942 19.647614 4 18.849576 4 17.8125 C 4 16.972371 4.3376449 16.329234 5 15.84375 C 5.662355 15.358266 6.5044612 15.104507 7.53125 15.0625 L 7.53125 14.875 C 7.2832133 14.801317 7.0146649 14.70462 6.75 14.59375 C 6.4846423 14.482881 6.253031 14.366805 6.0625 14.21875 C 5.8470267 14.045904 5.6948325 13.828573 5.5625 13.59375 C 5.430168 13.358928 5.34375 13.064442 5.34375 12.71875 C 5.34375 12.282159 5.5021077 11.897601 5.8125 11.53125 C 6.1235852 11.165587 6.5896513 10.856807 7.21875 10.59375 L 7.21875 10.40625 C 6.4233697 10.035767 5.8135677 9.5492651 5.375 8.96875 C 4.9357394 8.3889235 4.71875 7.7032565 4.71875 6.9375 C 4.71875 5.785422 5.1658928 4.8659659 6.03125 4.125 C 6.8959143 3.3840341 7.9940976 3 9.34375 3 z M 9.28125 3.875 C 8.8918739 3.875 8.558386 3.9645492 8.28125 4.125 C 8.004114 4.2854508 7.7676528 4.5163891 7.59375 4.8125 C 7.4274684 5.0838202 7.3199769 5.3983718 7.25 5.78125 C 7.1800234 6.1641283 7.125 6.5659014 7.125 6.96875 C 7.125 7.882562 7.3169028 8.6118053 7.71875 9.1875 C 8.1205972 9.7638833 8.6438372 10.0625 9.28125 10.0625 C 9.9927971 10.0625 10.552281 9.7910015 10.9375 9.21875 C 11.322719 8.6464985 11.5 7.9037442 11.5 7.03125 C 11.5 6.0685453 11.33034 5.3222515 10.9375 4.75 C 10.543967 4.1784371 9.9927967 3.875 9.28125 3.875 z M 18 4 L 19 4 L 19 6 L 21 6 L 21 7 L 19 7 L 19 9 L 18 9 L 18 7 L 16 7 L 16 6 L 18 6 L 18 4 z M 8.65625 15.34375 C 7.7617935 15.516596 7.1262121 15.811081 6.75 16.21875 C 6.373095 16.626419 6.1875 17.139447 6.1875 17.78125 C 6.1875 18.069786 6.2509816 18.330693 6.375 18.59375 C 6.4990184 18.857495 6.7250147 19.122012 7.03125 19.34375 C 7.3208571 19.558603 7.6990478 19.70809 8.1875 19.84375 C 8.676645 19.978726 9.2648245 20.0625 9.96875 20.0625 C 11.185377 20.0625 12.143982 19.840514 12.84375 19.375 C 13.543519 18.910174 13.90485 18.196178 13.90625 17.25 C 13.90625 16.788618 13.777973 16.421799 13.5625 16.125 C 13.346334 15.8282 13.032318 15.606738 12.59375 15.5 C 12.361648 15.46763 11.876803 15.44826 11.15625 15.40625 C 10.436389 15.36493 9.6082121 15.34375 8.65625 15.34375 z "/>
</svg>
