<svg width="24" xmlns="http://www.w3.org/2000/svg" viewBox="0 0 24 24" height="24" style="enable-background:new 0 0 48 48">
<path style="fill:#fff;fill-rule:evenodd" d="M 12 0 C 5.372583 -2.3684758e-15 0 5.3725832 0 12 C 0 18.627417 5.372583 24 12 24 C 18.627417 24 24 18.627417 24 12 C 24 5.3725832 18.627417 0 12 0 z M 15.46875 5 C 16.530946 5 17.482994 5.438238 18.15625 6.125 C 18.998559 5.966604 19.78714 5.655044 20.5 5.25 C 20.223959 6.074794 19.638103 6.781462 18.875 7.21875 C 19.622734 7.133328 20.337975 6.937404 21 6.65625 C 20.505254 7.365075 19.879749 7.999354 19.15625 8.5 C 19.16398 8.651608 19.15625 8.784195 19.15625 8.9375 C 19.15625 13.607371 15.447922 19 8.65625 19 C 6.5708699 19 4.634375 18.40924 3 17.40625 C 3.289045 17.43963 3.577089 17.46875 3.875 17.46875 C 5.6045419 17.46875 7.2049909 16.885617 8.46875 15.9375 C 6.8532899 15.908649 5.501169 14.903507 5.03125 13.5 C 5.257048 13.54073 5.480539 13.5625 5.71875 13.5625 C 6.055674 13.5625 6.377176 13.51896 6.6875 13.4375 C 4.998153 13.112787 3.71875 11.681131 3.71875 9.96875 L 3.71875 9.9375 C 4.217043 10.202248 4.8009691 10.3569 5.40625 10.375 C 4.415576 9.741414 3.75 8.663377 3.75 7.4375 C 3.75 6.789771 3.9319911 6.178393 4.25 5.65625 C 6.071161 7.794038 8.8060397 9.196101 11.875 9.34375 C 11.81234 9.084659 11.78125 8.807879 11.78125 8.53125 C 11.78125 6.579012 13.430066 5 15.46875 5 z "/>
</svg>